<svg width="330" height="261" viewBox="0 0 330 261" fill="none" xmlns="http://www.w3.org/2000/svg">
<rect x="0.5" y="0.5" width="329" height="260" rx="3.5" fill="white"/>
<rect x="0.5" y="0.5" width="329" height="260" rx="3.5" stroke="#DEDEDE"/>
<rect x="136" y="9" width="58" height="58" rx="29" fill="#F8F8F8"/>
<path fill-rule="evenodd" clip-rule="evenodd" d="M161 35.6667C161 34.7462 161.746 34 162.667 34C163.587 34 164.333 34.7462 164.333 35.6667C164.333 36.5872 163.587 37.3334 162.667 37.3334C161.746 37.3334 161 36.5872 161 35.6667ZM162.667 35.3334C162.483 35.3334 162.333 35.4826 162.333 35.6667C162.333 35.8508 162.483 36 162.667 36C162.851 36 163 35.8508 163 35.6667C163 35.4826 162.851 35.3334 162.667 35.3334Z" fill="#BABABA"/>
<path fill-rule="evenodd" clip-rule="evenodd" d="M158.333 33.3334C158.333 32.2288 159.229 31.3334 160.333 31.3334H169.667C170.771 31.3334 171.667 32.2288 171.667 33.3334V42.6667C171.667 43.7713 170.771 44.6667 169.667 44.6667H160.333C159.229 44.6667 158.333 43.7713 158.333 42.6667V33.3334ZM160.333 32.6667C159.965 32.6667 159.667 32.9652 159.667 33.3334V42.6667C159.667 42.9526 159.847 43.1965 160.1 43.2912L167.195 36.1953C167.456 35.935 167.878 35.935 168.138 36.1953L170.333 38.3905V33.3334C170.333 32.9652 170.035 32.6667 169.667 32.6667H160.333ZM170.333 40.2761L167.667 37.6095L161.943 43.3334H169.667C170.035 43.3334 170.333 43.0349 170.333 42.6667V40.2761Z" fill="#BABABA"/>
<circle cx="139" cy="83" r="8" fill="#BABABA"/>
<circle cx="165" cy="83" r="8" fill="#BABABA"/>
<circle cx="191" cy="83" r="8" fill="#BABABA"/>
<rect x="104" y="111" width="122" height="16" rx="3" fill="#BABABA"/>
<path d="M144.667 134C144.667 132.343 146.01 131 147.667 131H182.333C183.99 131 185.333 132.343 185.333 134V144C185.333 145.657 183.99 147 182.333 147H147.667C146.01 147 144.667 145.657 144.667 144V134Z" fill="#BABABA"/>
<rect x="104" y="163" width="122" height="10" rx="3" fill="#BABABA"/>
<rect x="104" y="177" width="122" height="10" rx="3" fill="#BABABA"/>
<rect x="104" y="191" width="122" height="10" rx="3" fill="#BABABA"/>
<path d="M104 208C104 206.343 105.343 205 107 205H162C163.657 205 165 206.343 165 208V212C165 213.657 163.657 215 162 215H107C105.343 215 104 213.657 104 212V208Z" fill="#BABABA"/>
<path d="M108.926 242H107.693C107.62 241.645 107.493 241.334 107.31 241.065C107.131 240.797 106.913 240.571 106.654 240.389C106.399 240.204 106.116 240.064 105.804 239.972C105.492 239.879 105.168 239.832 104.83 239.832C104.213 239.832 103.655 239.988 103.154 240.3C102.657 240.611 102.261 241.07 101.966 241.677C101.674 242.283 101.528 243.027 101.528 243.909C101.528 244.791 101.674 245.535 101.966 246.141C102.261 246.748 102.657 247.207 103.154 247.518C103.655 247.83 104.213 247.986 104.83 247.986C105.168 247.986 105.492 247.939 105.804 247.847C106.116 247.754 106.399 247.616 106.654 247.434C106.913 247.248 107.131 247.021 107.31 246.753C107.493 246.481 107.62 246.17 107.693 245.818H108.926C108.833 246.339 108.664 246.804 108.419 247.215C108.174 247.626 107.869 247.976 107.504 248.264C107.14 248.549 106.73 248.766 106.276 248.915C105.826 249.065 105.343 249.139 104.83 249.139C103.961 249.139 103.189 248.927 102.513 248.503C101.837 248.079 101.305 247.475 100.917 246.693C100.529 245.911 100.335 244.983 100.335 243.909C100.335 242.835 100.529 241.907 100.917 241.125C101.305 240.343 101.837 239.74 102.513 239.315C103.189 238.891 103.961 238.679 104.83 238.679C105.343 238.679 105.826 238.754 106.276 238.903C106.73 239.052 107.14 239.271 107.504 239.559C107.869 239.844 108.174 240.192 108.419 240.603C108.664 241.011 108.833 241.476 108.926 242ZM113.961 249.159C113.225 249.159 112.591 248.997 112.057 248.672C111.527 248.344 111.117 247.886 110.829 247.3C110.544 246.71 110.401 246.024 110.401 245.241C110.401 244.459 110.544 243.77 110.829 243.173C111.117 242.573 111.518 242.106 112.032 241.771C112.549 241.433 113.152 241.264 113.842 241.264C114.24 241.264 114.632 241.33 115.02 241.463C115.408 241.596 115.761 241.811 116.079 242.109C116.397 242.404 116.651 242.795 116.84 243.283C117.029 243.77 117.123 244.37 117.123 245.082V245.58H111.237V244.565H115.93C115.93 244.134 115.844 243.75 115.671 243.412C115.502 243.074 115.26 242.807 114.945 242.612C114.634 242.416 114.266 242.318 113.842 242.318C113.374 242.318 112.97 242.434 112.629 242.666C112.291 242.895 112.03 243.193 111.848 243.561C111.666 243.929 111.575 244.323 111.575 244.744V245.42C111.575 245.997 111.674 246.486 111.873 246.887C112.075 247.285 112.355 247.588 112.713 247.797C113.071 248.002 113.487 248.105 113.961 248.105C114.269 248.105 114.548 248.062 114.796 247.976C115.048 247.886 115.265 247.754 115.448 247.578C115.63 247.399 115.771 247.177 115.87 246.912L117.004 247.23C116.884 247.615 116.684 247.953 116.402 248.244C116.12 248.533 115.772 248.758 115.358 248.92C114.944 249.08 114.478 249.159 113.961 249.159ZM120.081 244.406V249H118.908V241.364H120.041V242.557H120.141C120.32 242.169 120.592 241.857 120.956 241.622C121.321 241.384 121.791 241.264 122.368 241.264C122.885 241.264 123.338 241.37 123.725 241.582C124.113 241.791 124.415 242.109 124.63 242.537C124.846 242.961 124.953 243.498 124.953 244.148V249H123.78V244.227C123.78 243.627 123.624 243.16 123.313 242.825C123.001 242.487 122.574 242.318 122.03 242.318C121.655 242.318 121.321 242.399 121.026 242.562C120.734 242.724 120.504 242.961 120.335 243.273C120.166 243.584 120.081 243.962 120.081 244.406ZM130.418 241.364V242.358H126.461V241.364H130.418ZM127.614 239.534H128.788V246.812C128.788 247.144 128.836 247.393 128.932 247.558C129.031 247.721 129.157 247.83 129.31 247.886C129.465 247.939 129.629 247.966 129.802 247.966C129.931 247.966 130.037 247.959 130.12 247.946C130.203 247.929 130.269 247.916 130.319 247.906L130.558 248.96C130.478 248.99 130.367 249.02 130.224 249.05C130.082 249.083 129.901 249.099 129.683 249.099C129.351 249.099 129.026 249.028 128.708 248.886C128.393 248.743 128.131 248.526 127.923 248.234C127.717 247.943 127.614 247.575 127.614 247.131V239.534ZM135.303 249.159C134.567 249.159 133.932 248.997 133.399 248.672C132.868 248.344 132.459 247.886 132.171 247.3C131.886 246.71 131.743 246.024 131.743 245.241C131.743 244.459 131.886 243.77 132.171 243.173C132.459 242.573 132.86 242.106 133.374 241.771C133.891 241.433 134.494 241.264 135.184 241.264C135.581 241.264 135.974 241.33 136.362 241.463C136.75 241.596 137.103 241.811 137.421 242.109C137.739 242.404 137.993 242.795 138.181 243.283C138.37 243.77 138.465 244.37 138.465 245.082V245.58H132.578V244.565H137.272C137.272 244.134 137.185 243.75 137.013 243.412C136.844 243.074 136.602 242.807 136.287 242.612C135.976 242.416 135.608 242.318 135.184 242.318C134.716 242.318 134.312 242.434 133.971 242.666C133.632 242.895 133.372 243.193 133.19 243.561C133.008 243.929 132.917 244.323 132.917 244.744V245.42C132.917 245.997 133.016 246.486 133.215 246.887C133.417 247.285 133.697 247.588 134.055 247.797C134.413 248.002 134.829 248.105 135.303 248.105C135.611 248.105 135.89 248.062 136.138 247.976C136.39 247.886 136.607 247.754 136.789 247.578C136.972 247.399 137.113 247.177 137.212 246.912L138.346 247.23C138.226 247.615 138.026 247.953 137.744 248.244C137.462 248.533 137.114 248.758 136.7 248.92C136.286 249.08 135.82 249.159 135.303 249.159ZM140.25 249V241.364H141.383V242.517H141.463C141.602 242.139 141.854 241.833 142.218 241.597C142.583 241.362 142.994 241.244 143.451 241.244C143.538 241.244 143.645 241.246 143.775 241.249C143.904 241.253 144.002 241.258 144.068 241.264V242.457C144.028 242.447 143.937 242.433 143.794 242.413C143.655 242.389 143.508 242.378 143.352 242.378C142.981 242.378 142.649 242.456 142.358 242.612C142.069 242.764 141.841 242.976 141.672 243.248C141.506 243.516 141.423 243.823 141.423 244.168V249H140.25ZM149.973 249H148.68L152.419 238.818H153.692L157.43 249H156.138L153.095 240.429H153.015L149.973 249ZM150.45 245.023H155.66V246.116H150.45V245.023ZM160.03 238.818V249H158.857V238.818H160.03ZM162.179 249V241.364H163.353V249H162.179ZM162.776 240.091C162.547 240.091 162.35 240.013 162.184 239.857C162.022 239.701 161.941 239.514 161.941 239.295C161.941 239.077 162.022 238.889 162.184 238.734C162.35 238.578 162.547 238.5 162.776 238.5C163.005 238.5 163.2 238.578 163.363 238.734C163.528 238.889 163.611 239.077 163.611 239.295C163.611 239.514 163.528 239.701 163.363 239.857C163.2 240.013 163.005 240.091 162.776 240.091ZM168.584 252.023C168.017 252.023 167.53 251.95 167.122 251.804C166.715 251.661 166.375 251.473 166.103 251.237C165.835 251.005 165.621 250.757 165.462 250.491L166.396 249.835C166.503 249.974 166.637 250.134 166.799 250.312C166.962 250.495 167.184 250.652 167.465 250.785C167.75 250.921 168.123 250.989 168.584 250.989C169.2 250.989 169.709 250.839 170.11 250.541C170.511 250.243 170.712 249.776 170.712 249.139V247.588H170.612C170.526 247.727 170.404 247.9 170.244 248.105C170.089 248.307 169.863 248.488 169.568 248.647C169.277 248.803 168.882 248.881 168.385 248.881C167.769 248.881 167.215 248.735 166.725 248.443C166.237 248.152 165.851 247.727 165.566 247.17C165.285 246.614 165.144 245.937 165.144 245.142C165.144 244.36 165.281 243.679 165.556 243.099C165.831 242.515 166.214 242.065 166.705 241.746C167.195 241.425 167.762 241.264 168.405 241.264C168.902 241.264 169.297 241.347 169.588 241.513C169.883 241.675 170.109 241.861 170.264 242.07C170.423 242.275 170.546 242.444 170.632 242.577H170.752V241.364H171.885V249.219C171.885 249.875 171.736 250.409 171.438 250.82C171.143 251.234 170.745 251.537 170.244 251.729C169.747 251.925 169.194 252.023 168.584 252.023ZM168.544 247.827C169.015 247.827 169.413 247.719 169.737 247.504C170.062 247.288 170.309 246.978 170.478 246.574C170.647 246.17 170.732 245.686 170.732 245.122C170.732 244.572 170.649 244.086 170.483 243.665C170.317 243.245 170.072 242.915 169.747 242.676C169.423 242.437 169.021 242.318 168.544 242.318C168.047 242.318 167.633 242.444 167.301 242.696C166.973 242.948 166.726 243.286 166.561 243.71C166.398 244.134 166.317 244.605 166.317 245.122C166.317 245.652 166.4 246.121 166.566 246.529C166.735 246.933 166.983 247.252 167.311 247.484C167.643 247.712 168.054 247.827 168.544 247.827ZM175.206 244.406V249H174.033V241.364H175.166V242.557H175.266C175.445 242.169 175.717 241.857 176.081 241.622C176.446 241.384 176.916 241.264 177.493 241.264C178.01 241.264 178.463 241.37 178.85 241.582C179.238 241.791 179.54 242.109 179.755 242.537C179.971 242.961 180.078 243.498 180.078 244.148V249H178.905V244.227C178.905 243.627 178.749 243.16 178.438 242.825C178.126 242.487 177.699 242.318 177.155 242.318C176.78 242.318 176.446 242.399 176.151 242.562C175.859 242.724 175.629 242.961 175.46 243.273C175.291 243.584 175.206 243.962 175.206 244.406ZM186.319 249V238.818H187.552V247.906H192.285V249H186.319ZM196.282 249.179C195.798 249.179 195.359 249.088 194.964 248.906C194.57 248.72 194.257 248.453 194.025 248.105C193.793 247.754 193.677 247.33 193.677 246.832C193.677 246.395 193.763 246.04 193.935 245.768C194.108 245.493 194.338 245.278 194.626 245.122C194.915 244.966 195.233 244.85 195.581 244.774C195.932 244.695 196.285 244.632 196.64 244.585C197.104 244.526 197.48 244.481 197.768 244.451C198.06 244.418 198.272 244.363 198.405 244.287C198.541 244.211 198.609 244.078 198.609 243.889V243.849C198.609 243.359 198.474 242.978 198.206 242.706C197.941 242.434 197.538 242.298 196.998 242.298C196.438 242.298 195.999 242.421 195.68 242.666C195.362 242.911 195.138 243.173 195.009 243.452L193.896 243.054C194.094 242.59 194.36 242.229 194.691 241.97C195.026 241.708 195.39 241.526 195.785 241.423C196.183 241.317 196.574 241.264 196.958 241.264C197.203 241.264 197.485 241.294 197.803 241.354C198.125 241.41 198.435 241.528 198.733 241.707C199.035 241.886 199.285 242.156 199.484 242.517C199.683 242.878 199.782 243.362 199.782 243.969V249H198.609V247.966H198.549C198.469 248.132 198.337 248.309 198.151 248.498C197.966 248.687 197.719 248.848 197.411 248.98C197.102 249.113 196.726 249.179 196.282 249.179ZM196.461 248.125C196.925 248.125 197.316 248.034 197.634 247.852C197.956 247.669 198.198 247.434 198.36 247.146C198.526 246.857 198.609 246.554 198.609 246.236V245.162C198.559 245.222 198.45 245.276 198.281 245.326C198.115 245.372 197.923 245.414 197.704 245.45C197.488 245.483 197.278 245.513 197.072 245.54C196.87 245.563 196.706 245.583 196.58 245.599C196.275 245.639 195.99 245.704 195.725 245.793C195.463 245.879 195.251 246.01 195.089 246.186C194.93 246.358 194.85 246.594 194.85 246.892C194.85 247.3 195.001 247.608 195.303 247.817C195.607 248.022 195.994 248.125 196.461 248.125ZM202.406 251.864C202.207 251.864 202.03 251.847 201.874 251.814C201.718 251.784 201.61 251.754 201.551 251.724L201.849 250.69C202.134 250.763 202.386 250.79 202.605 250.77C202.823 250.75 203.017 250.652 203.186 250.477C203.359 250.304 203.516 250.024 203.659 249.636L203.877 249.04L201.053 241.364H202.326L204.434 247.449H204.514L206.622 241.364H207.894L204.653 250.114C204.507 250.508 204.326 250.835 204.111 251.093C203.896 251.355 203.645 251.549 203.36 251.675C203.079 251.801 202.76 251.864 202.406 251.864ZM212.272 249.159C211.582 249.159 210.978 248.995 210.457 248.667C209.94 248.339 209.536 247.88 209.244 247.29C208.956 246.7 208.812 246.01 208.812 245.222C208.812 244.426 208.956 243.732 209.244 243.138C209.536 242.545 209.94 242.085 210.457 241.756C210.978 241.428 211.582 241.264 212.272 241.264C212.961 241.264 213.564 241.428 214.081 241.756C214.602 242.085 215.006 242.545 215.295 243.138C215.586 243.732 215.732 244.426 215.732 245.222C215.732 246.01 215.586 246.7 215.295 247.29C215.006 247.88 214.602 248.339 214.081 248.667C213.564 248.995 212.961 249.159 212.272 249.159ZM212.272 248.105C212.796 248.105 213.226 247.971 213.564 247.702C213.903 247.434 214.153 247.081 214.315 246.643C214.478 246.206 214.559 245.732 214.559 245.222C214.559 244.711 214.478 244.236 214.315 243.795C214.153 243.354 213.903 242.998 213.564 242.726C213.226 242.454 212.796 242.318 212.272 242.318C211.748 242.318 211.317 242.454 210.979 242.726C210.641 242.998 210.391 243.354 210.229 243.795C210.066 244.236 209.985 244.711 209.985 245.222C209.985 245.732 210.066 246.206 210.229 246.643C210.391 247.081 210.641 247.434 210.979 247.702C211.317 247.971 211.748 248.105 212.272 248.105ZM222.336 245.878V241.364H223.509V249H222.336V247.707H222.256C222.077 248.095 221.799 248.425 221.421 248.697C221.043 248.965 220.566 249.099 219.989 249.099C219.512 249.099 219.087 248.995 218.716 248.786C218.345 248.574 218.053 248.256 217.841 247.832C217.629 247.404 217.523 246.866 217.523 246.216V241.364H218.696V246.136C218.696 246.693 218.852 247.137 219.164 247.469C219.479 247.8 219.88 247.966 220.367 247.966C220.658 247.966 220.955 247.891 221.257 247.742C221.562 247.593 221.817 247.364 222.022 247.056C222.231 246.748 222.336 246.355 222.336 245.878ZM228.979 241.364V242.358H225.021V241.364H228.979ZM226.175 239.534H227.348V246.812C227.348 247.144 227.396 247.393 227.492 247.558C227.592 247.721 227.718 247.83 227.87 247.886C228.026 247.939 228.19 247.966 228.362 247.966C228.492 247.966 228.598 247.959 228.681 247.946C228.763 247.929 228.83 247.916 228.879 247.906L229.118 248.96C229.039 248.99 228.927 249.02 228.785 249.05C228.642 249.083 228.462 249.099 228.243 249.099C227.912 249.099 227.587 249.028 227.269 248.886C226.954 248.743 226.692 248.526 226.483 248.234C226.278 247.943 226.175 247.575 226.175 247.131V239.534Z" fill="#808080"/>
</svg>
