<svg width="330" height="261" viewBox="0 0 330 261" fill="none" xmlns="http://www.w3.org/2000/svg">
<rect x="0.5" y="0.5" width="329" height="260" rx="3.5" fill="white"/>
<rect x="0.5" y="0.5" width="329" height="260" rx="3.5" stroke="#4764FF"/>
<rect x="65" y="60" width="58" height="58" rx="29" fill="#EFF2F6"/>
<path fill-rule="evenodd" clip-rule="evenodd" d="M90 86.6667C90 85.7462 90.7462 85 91.6667 85C92.5872 85 93.3334 85.7462 93.3334 86.6667C93.3334 87.5872 92.5872 88.3334 91.6667 88.3334C90.7462 88.3334 90 87.5872 90 86.6667ZM91.6667 86.3334C91.4826 86.3334 91.3334 86.4826 91.3334 86.6667C91.3334 86.8508 91.4826 87 91.6667 87C91.8508 87 92 86.8508 92 86.6667C92 86.4826 91.8508 86.3334 91.6667 86.3334Z" fill="#BBC8E2"/>
<path fill-rule="evenodd" clip-rule="evenodd" d="M87.3334 84.3334C87.3334 83.2288 88.2288 82.3334 89.3334 82.3334H98.6667C99.7713 82.3334 100.667 83.2288 100.667 84.3334V93.6667C100.667 94.7713 99.7713 95.6667 98.6667 95.6667H89.3334C88.2288 95.6667 87.3334 94.7713 87.3334 93.6667V84.3334ZM89.3334 83.6667C88.9652 83.6667 88.6667 83.9652 88.6667 84.3334V93.6667C88.6667 93.9526 88.8467 94.1965 89.0995 94.2912L96.1954 87.1953C96.4557 86.935 96.8778 86.935 97.1382 87.1953L99.3334 89.3905V84.3334C99.3334 83.9652 99.0349 83.6667 98.6667 83.6667H89.3334ZM99.3334 91.2761L96.6668 88.6095L90.9429 94.3334H98.6667C99.0349 94.3334 99.3334 94.0349 99.3334 93.6667V91.2761Z" fill="#BBC8E2"/>
<circle cx="68" cy="134" r="8" fill="#BBC8E2"/>
<circle cx="94" cy="134" r="8" fill="#BBC8E2"/>
<circle cx="120" cy="134" r="8" fill="#BBC8E2"/>
<rect x="148" y="60" width="122" height="16" rx="3" fill="#BBC8E2"/>
<path d="M148 83C148 81.3431 149.343 80 151 80H206C207.657 80 209 81.3431 209 83V93C209 94.6569 207.657 96 206 96H151C149.343 96 148 94.6569 148 93V83Z" fill="#BBC8E2"/>
<rect x="148" y="112" width="122" height="10" rx="3" fill="#BBC8E2"/>
<rect x="148" y="126" width="122" height="10" rx="3" fill="#BBC8E2"/>
<rect x="148" y="140" width="122" height="10" rx="3" fill="#BBC8E2"/>
<path d="M148 157C148 155.343 149.343 154 151 154H206C207.657 154 209 155.343 209 157V161C209 162.657 207.657 164 206 164H151C149.343 164 148 162.657 148 161V157Z" fill="#BBC8E2"/>
<path d="M110.233 249V238.818H111.466V247.906H116.199V249H110.233ZM121.151 249.159C120.415 249.159 119.78 248.997 119.246 248.672C118.716 248.344 118.307 247.886 118.018 247.3C117.733 246.71 117.591 246.024 117.591 245.241C117.591 244.459 117.733 243.77 118.018 243.173C118.307 242.573 118.708 242.106 119.222 241.771C119.739 241.433 120.342 241.264 121.031 241.264C121.429 241.264 121.822 241.33 122.21 241.463C122.597 241.596 122.95 241.811 123.268 242.109C123.587 242.404 123.84 242.795 124.029 243.283C124.218 243.77 124.312 244.37 124.312 245.082V245.58H118.426V244.565H123.119C123.119 244.134 123.033 243.75 122.861 243.412C122.692 243.074 122.45 242.807 122.135 242.612C121.823 242.416 121.455 242.318 121.031 242.318C120.564 242.318 120.16 242.434 119.818 242.666C119.48 242.895 119.22 243.193 119.038 243.561C118.855 243.929 118.764 244.323 118.764 244.744V245.42C118.764 245.997 118.864 246.486 119.062 246.887C119.265 247.285 119.545 247.588 119.903 247.797C120.261 248.002 120.677 248.105 121.151 248.105C121.459 248.105 121.737 248.062 121.986 247.976C122.238 247.886 122.455 247.754 122.637 247.578C122.819 247.399 122.96 247.177 123.06 246.912L124.193 247.23C124.074 247.615 123.873 247.953 123.592 248.244C123.31 248.533 122.962 248.758 122.548 248.92C122.133 249.08 121.668 249.159 121.151 249.159ZM129.498 241.364V242.358H125.381V241.364H129.498ZM126.614 249V240.31C126.614 239.872 126.717 239.508 126.923 239.216C127.128 238.924 127.395 238.705 127.723 238.56C128.051 238.414 128.397 238.341 128.762 238.341C129.05 238.341 129.286 238.364 129.468 238.411C129.65 238.457 129.786 238.5 129.876 238.54L129.538 239.554C129.478 239.534 129.395 239.509 129.289 239.479C129.186 239.45 129.05 239.435 128.881 239.435C128.494 239.435 128.214 239.532 128.041 239.728C127.872 239.924 127.788 240.21 127.788 240.588V249H126.614ZM134.463 241.364V242.358H130.506V241.364H134.463ZM131.659 239.534H132.833V246.812C132.833 247.144 132.881 247.393 132.977 247.558C133.076 247.721 133.202 247.83 133.355 247.886C133.51 247.939 133.674 247.966 133.847 247.966C133.976 247.966 134.082 247.959 134.165 247.946C134.248 247.929 134.314 247.916 134.364 247.906L134.602 248.96C134.523 248.99 134.412 249.02 134.269 249.05C134.127 249.083 133.946 249.099 133.727 249.099C133.396 249.099 133.071 249.028 132.753 248.886C132.438 248.743 132.176 248.526 131.968 248.234C131.762 247.943 131.659 247.575 131.659 247.131V239.534ZM140.742 249H139.45L143.188 238.818H144.461L148.2 249H146.907L143.865 240.429H143.785L140.742 249ZM141.22 245.023H146.43V246.116H141.22V245.023ZM150.8 238.818V249H149.627V238.818H150.8ZM152.949 249V241.364H154.122V249H152.949ZM153.545 240.091C153.317 240.091 153.12 240.013 152.954 239.857C152.791 239.701 152.71 239.514 152.71 239.295C152.71 239.077 152.791 238.889 152.954 238.734C153.12 238.578 153.317 238.5 153.545 238.5C153.774 238.5 153.97 238.578 154.132 238.734C154.298 238.889 154.381 239.077 154.381 239.295C154.381 239.514 154.298 239.701 154.132 239.857C153.97 240.013 153.774 240.091 153.545 240.091ZM159.354 252.023C158.787 252.023 158.3 251.95 157.892 251.804C157.484 251.661 157.144 251.473 156.873 251.237C156.604 251.005 156.39 250.757 156.231 250.491L157.166 249.835C157.272 249.974 157.406 250.134 157.569 250.312C157.731 250.495 157.953 250.652 158.235 250.785C158.52 250.921 158.893 250.989 159.354 250.989C159.97 250.989 160.479 250.839 160.88 250.541C161.281 250.243 161.481 249.776 161.481 249.139V247.588H161.382C161.296 247.727 161.173 247.9 161.014 248.105C160.858 248.307 160.633 248.488 160.338 248.647C160.046 248.803 159.652 248.881 159.155 248.881C158.538 248.881 157.985 248.735 157.494 248.443C157.007 248.152 156.621 247.727 156.336 247.17C156.054 246.614 155.913 245.937 155.913 245.142C155.913 244.36 156.051 243.679 156.326 243.099C156.601 242.515 156.984 242.065 157.474 241.746C157.965 241.425 158.532 241.264 159.175 241.264C159.672 241.264 160.066 241.347 160.358 241.513C160.653 241.675 160.878 241.861 161.034 242.07C161.193 242.275 161.316 242.444 161.402 242.577H161.521V241.364H162.655V249.219C162.655 249.875 162.506 250.409 162.207 250.82C161.912 251.234 161.515 251.537 161.014 251.729C160.517 251.925 159.963 252.023 159.354 252.023ZM159.314 247.827C159.784 247.827 160.182 247.719 160.507 247.504C160.832 247.288 161.079 246.978 161.248 246.574C161.417 246.17 161.501 245.686 161.501 245.122C161.501 244.572 161.418 244.086 161.253 243.665C161.087 243.245 160.842 242.915 160.517 242.676C160.192 242.437 159.791 242.318 159.314 242.318C158.817 242.318 158.402 242.444 158.071 242.696C157.743 242.948 157.496 243.286 157.33 243.71C157.168 244.134 157.086 244.605 157.086 245.122C157.086 245.652 157.169 246.121 157.335 246.529C157.504 246.933 157.753 247.252 158.081 247.484C158.412 247.712 158.823 247.827 159.314 247.827ZM165.976 244.406V249H164.802V241.364H165.936V242.557H166.035C166.214 242.169 166.486 241.857 166.851 241.622C167.215 241.384 167.686 241.264 168.263 241.264C168.78 241.264 169.232 241.37 169.62 241.582C170.008 241.791 170.309 242.109 170.525 242.537C170.74 242.961 170.848 243.498 170.848 244.148V249H169.675V244.227C169.675 243.627 169.519 243.16 169.207 242.825C168.896 242.487 168.468 242.318 167.925 242.318C167.55 242.318 167.215 242.399 166.92 242.562C166.629 242.724 166.398 242.961 166.229 243.273C166.06 243.584 165.976 243.962 165.976 244.406ZM177.088 249V238.818H178.321V247.906H183.054V249H177.088ZM187.051 249.179C186.568 249.179 186.128 249.088 185.734 248.906C185.34 248.72 185.026 248.453 184.794 248.105C184.562 247.754 184.446 247.33 184.446 246.832C184.446 246.395 184.533 246.04 184.705 245.768C184.877 245.493 185.108 245.278 185.396 245.122C185.684 244.966 186.002 244.85 186.35 244.774C186.702 244.695 187.055 244.632 187.409 244.585C187.873 244.526 188.25 244.481 188.538 244.451C188.83 244.418 189.042 244.363 189.174 244.287C189.31 244.211 189.378 244.078 189.378 243.889V243.849C189.378 243.359 189.244 242.978 188.975 242.706C188.71 242.434 188.308 242.298 187.767 242.298C187.207 242.298 186.768 242.421 186.45 242.666C186.132 242.911 185.908 243.173 185.779 243.452L184.665 243.054C184.864 242.59 185.129 242.229 185.461 241.97C185.795 241.708 186.16 241.526 186.554 241.423C186.952 241.317 187.343 241.264 187.728 241.264C187.973 241.264 188.255 241.294 188.573 241.354C188.894 241.41 189.204 241.528 189.502 241.707C189.804 241.886 190.054 242.156 190.253 242.517C190.452 242.878 190.551 243.362 190.551 243.969V249H189.378V247.966H189.319C189.239 248.132 189.106 248.309 188.921 248.498C188.735 248.687 188.488 248.848 188.18 248.98C187.872 249.113 187.496 249.179 187.051 249.179ZM187.23 248.125C187.694 248.125 188.086 248.034 188.404 247.852C188.725 247.669 188.967 247.434 189.13 247.146C189.295 246.857 189.378 246.554 189.378 246.236V245.162C189.328 245.222 189.219 245.276 189.05 245.326C188.884 245.372 188.692 245.414 188.473 245.45C188.258 245.483 188.047 245.513 187.842 245.54C187.64 245.563 187.476 245.583 187.35 245.599C187.045 245.639 186.76 245.704 186.495 245.793C186.233 245.879 186.021 246.01 185.858 246.186C185.699 246.358 185.62 246.594 185.62 246.892C185.62 247.3 185.77 247.608 186.072 247.817C186.377 248.022 186.763 248.125 187.23 248.125ZM193.175 251.864C192.976 251.864 192.799 251.847 192.643 251.814C192.488 251.784 192.38 251.754 192.32 251.724L192.618 250.69C192.903 250.763 193.155 250.79 193.374 250.77C193.593 250.75 193.787 250.652 193.956 250.477C194.128 250.304 194.286 250.024 194.428 249.636L194.647 249.04L191.823 241.364H193.096L195.204 247.449H195.283L197.391 241.364H198.664L195.422 250.114C195.277 250.508 195.096 250.835 194.881 251.093C194.665 251.355 194.415 251.549 194.13 251.675C193.848 251.801 193.53 251.864 193.175 251.864ZM203.041 249.159C202.352 249.159 201.747 248.995 201.227 248.667C200.71 248.339 200.305 247.88 200.014 247.29C199.725 246.7 199.581 246.01 199.581 245.222C199.581 244.426 199.725 243.732 200.014 243.138C200.305 242.545 200.71 242.085 201.227 241.756C201.747 241.428 202.352 241.264 203.041 241.264C203.731 241.264 204.334 241.428 204.851 241.756C205.371 242.085 205.776 242.545 206.064 243.138C206.356 243.732 206.502 244.426 206.502 245.222C206.502 246.01 206.356 246.7 206.064 247.29C205.776 247.88 205.371 248.339 204.851 248.667C204.334 248.995 203.731 249.159 203.041 249.159ZM203.041 248.105C203.565 248.105 203.996 247.971 204.334 247.702C204.672 247.434 204.922 247.081 205.085 246.643C205.247 246.206 205.328 245.732 205.328 245.222C205.328 244.711 205.247 244.236 205.085 243.795C204.922 243.354 204.672 242.998 204.334 242.726C203.996 242.454 203.565 242.318 203.041 242.318C202.518 242.318 202.087 242.454 201.749 242.726C201.411 242.998 201.16 243.354 200.998 243.795C200.836 244.236 200.754 244.711 200.754 245.222C200.754 245.732 200.836 246.206 200.998 246.643C201.16 247.081 201.411 247.434 201.749 247.702C202.087 247.971 202.518 248.105 203.041 248.105ZM213.105 245.878V241.364H214.278V249H213.105V247.707H213.026C212.847 248.095 212.568 248.425 212.19 248.697C211.813 248.965 211.335 249.099 210.759 249.099C210.281 249.099 209.857 248.995 209.486 248.786C209.115 248.574 208.823 248.256 208.611 247.832C208.399 247.404 208.293 246.866 208.293 246.216V241.364H209.466V246.136C209.466 246.693 209.622 247.137 209.933 247.469C210.248 247.8 210.649 247.966 211.136 247.966C211.428 247.966 211.725 247.891 212.026 247.742C212.331 247.593 212.586 247.364 212.792 247.056C213.001 246.748 213.105 246.355 213.105 245.878ZM219.748 241.364V242.358H215.791V241.364H219.748ZM216.944 239.534H218.118V246.812C218.118 247.144 218.166 247.393 218.262 247.558C218.361 247.721 218.487 247.83 218.64 247.886C218.796 247.939 218.96 247.966 219.132 247.966C219.261 247.966 219.367 247.959 219.45 247.946C219.533 247.929 219.599 247.916 219.649 247.906L219.888 248.96C219.808 248.99 219.697 249.02 219.555 249.05C219.412 249.083 219.231 249.099 219.013 249.099C218.681 249.099 218.356 249.028 218.038 248.886C217.723 248.743 217.461 248.526 217.253 248.234C217.047 247.943 216.944 247.575 216.944 247.131V239.534Z" fill="#4764FF"/>
</svg>
