<svg width="330" height="261" viewBox="0 0 330 261" fill="none" xmlns="http://www.w3.org/2000/svg">
<rect x="0.5" y="0.5" width="329" height="260" rx="3.5" fill="white"/>
<rect x="0.5" y="0.5" width="329" height="260" rx="3.5" stroke="#DEDEDE"/>
<rect x="60" y="60" width="122" height="16" rx="3" fill="#BABABA"/>
<path d="M60 83C60 81.3431 61.3431 80 63 80H118C119.657 80 121 81.3431 121 83V93C121 94.6569 119.657 96 118 96H63C61.3431 96 60 94.6569 60 93V83Z" fill="#BABABA"/>
<rect x="60" y="112" width="122" height="10" rx="3" fill="#BABABA"/>
<rect x="60" y="126" width="122" height="10" rx="3" fill="#BABABA"/>
<rect x="60" y="140" width="122" height="10" rx="3" fill="#BABABA"/>
<path d="M60 157C60 155.343 61.3431 154 63 154H118C119.657 154 121 155.343 121 157V161C121 162.657 119.657 164 118 164H63C61.3431 164 60 162.657 60 161V157Z" fill="#BABABA"/>
<rect x="207" y="60" width="58" height="58" rx="29" fill="#F8F8F8"/>
<path fill-rule="evenodd" clip-rule="evenodd" d="M232 86.6667C232 85.7462 232.746 85 233.667 85C234.587 85 235.333 85.7462 235.333 86.6667C235.333 87.5872 234.587 88.3334 233.667 88.3334C232.746 88.3334 232 87.5872 232 86.6667ZM233.667 86.3334C233.483 86.3334 233.333 86.4826 233.333 86.6667C233.333 86.8508 233.483 87 233.667 87C233.851 87 234 86.8508 234 86.6667C234 86.4826 233.851 86.3334 233.667 86.3334Z" fill="#BABABA"/>
<path fill-rule="evenodd" clip-rule="evenodd" d="M229.333 84.3334C229.333 83.2288 230.229 82.3334 231.333 82.3334H240.667C241.771 82.3334 242.667 83.2288 242.667 84.3334V93.6667C242.667 94.7713 241.771 95.6667 240.667 95.6667H231.333C230.229 95.6667 229.333 94.7713 229.333 93.6667V84.3334ZM231.333 83.6667C230.965 83.6667 230.667 83.9652 230.667 84.3334V93.6667C230.667 93.9526 230.847 94.1965 231.1 94.2912L238.195 87.1953C238.456 86.935 238.878 86.935 239.138 87.1953L241.333 89.3905V84.3334C241.333 83.9652 241.035 83.6667 240.667 83.6667H231.333ZM241.333 91.2761L238.667 88.6095L232.943 94.3334H240.667C241.035 94.3334 241.333 94.0349 241.333 93.6667V91.2761Z" fill="#BABABA"/>
<circle cx="210" cy="134" r="8" fill="#BABABA"/>
<circle cx="236" cy="134" r="8" fill="#BABABA"/>
<circle cx="262" cy="134" r="8" fill="#BABABA"/>
<path d="M106.233 249V238.818H109.673C110.469 238.818 111.122 238.954 111.632 239.226C112.143 239.494 112.52 239.864 112.766 240.335C113.011 240.805 113.134 241.34 113.134 241.94C113.134 242.54 113.011 243.072 112.766 243.536C112.52 244 112.144 244.365 111.637 244.63C111.13 244.892 110.482 245.023 109.693 245.023H106.909V243.909H109.653C110.197 243.909 110.634 243.83 110.966 243.67C111.301 243.511 111.543 243.286 111.692 242.994C111.844 242.699 111.92 242.348 111.92 241.94C111.92 241.533 111.844 241.176 111.692 240.871C111.539 240.567 111.296 240.331 110.961 240.165C110.626 239.996 110.184 239.912 109.634 239.912H107.466V249H106.233ZM111.026 244.426L113.531 249H112.099L109.634 244.426H111.026ZM115.029 249V241.364H116.202V249H115.029ZM115.626 240.091C115.397 240.091 115.2 240.013 115.034 239.857C114.872 239.701 114.79 239.514 114.79 239.295C114.79 239.077 114.872 238.889 115.034 238.734C115.2 238.578 115.397 238.5 115.626 238.5C115.854 238.5 116.05 238.578 116.212 238.734C116.378 238.889 116.461 239.077 116.461 239.295C116.461 239.514 116.378 239.701 116.212 239.857C116.05 240.013 115.854 240.091 115.626 240.091ZM121.434 252.023C120.867 252.023 120.38 251.95 119.972 251.804C119.564 251.661 119.225 251.473 118.953 251.237C118.684 251.005 118.471 250.757 118.311 250.491L119.246 249.835C119.352 249.974 119.486 250.134 119.649 250.312C119.811 250.495 120.033 250.652 120.315 250.785C120.6 250.921 120.973 250.989 121.434 250.989C122.05 250.989 122.559 250.839 122.96 250.541C123.361 250.243 123.561 249.776 123.561 249.139V247.588H123.462C123.376 247.727 123.253 247.9 123.094 248.105C122.938 248.307 122.713 248.488 122.418 248.647C122.126 248.803 121.732 248.881 121.235 248.881C120.618 248.881 120.065 248.735 119.574 248.443C119.087 248.152 118.701 247.727 118.416 247.17C118.134 246.614 117.993 245.937 117.993 245.142C117.993 244.36 118.131 243.679 118.406 243.099C118.681 242.515 119.064 242.065 119.554 241.746C120.045 241.425 120.612 241.264 121.255 241.264C121.752 241.264 122.146 241.347 122.438 241.513C122.733 241.675 122.958 241.861 123.114 242.07C123.273 242.275 123.396 242.444 123.482 242.577H123.601V241.364H124.735V249.219C124.735 249.875 124.586 250.409 124.287 250.82C123.992 251.234 123.595 251.537 123.094 251.729C122.597 251.925 122.043 252.023 121.434 252.023ZM121.394 247.827C121.864 247.827 122.262 247.719 122.587 247.504C122.912 247.288 123.159 246.978 123.328 246.574C123.497 246.17 123.581 245.686 123.581 245.122C123.581 244.572 123.498 244.086 123.333 243.665C123.167 243.245 122.922 242.915 122.597 242.676C122.272 242.437 121.871 242.318 121.394 242.318C120.897 242.318 120.482 242.444 120.151 242.696C119.823 242.948 119.576 243.286 119.41 243.71C119.248 244.134 119.167 244.605 119.167 245.122C119.167 245.652 119.249 246.121 119.415 246.529C119.584 246.933 119.833 247.252 120.161 247.484C120.492 247.712 120.903 247.827 121.394 247.827ZM128.056 244.406V249H126.882V238.818H128.056V242.557H128.155C128.334 242.162 128.603 241.849 128.961 241.617C129.322 241.382 129.802 241.264 130.402 241.264C130.923 241.264 131.378 241.369 131.77 241.577C132.161 241.783 132.464 242.099 132.679 242.527C132.898 242.951 133.007 243.491 133.007 244.148V249H131.834V244.227C131.834 243.621 131.677 243.152 131.362 242.82C131.05 242.486 130.618 242.318 130.064 242.318C129.68 242.318 129.335 242.399 129.03 242.562C128.729 242.724 128.49 242.961 128.314 243.273C128.142 243.584 128.056 243.962 128.056 244.406ZM138.475 241.364V242.358H134.518V241.364H138.475ZM135.671 239.534H136.844V246.812C136.844 247.144 136.892 247.393 136.988 247.558C137.088 247.721 137.214 247.83 137.366 247.886C137.522 247.939 137.686 247.966 137.858 247.966C137.988 247.966 138.094 247.959 138.177 247.946C138.26 247.929 138.326 247.916 138.376 247.906L138.614 248.96C138.535 248.99 138.424 249.02 138.281 249.05C138.139 249.083 137.958 249.099 137.739 249.099C137.408 249.099 137.083 249.028 136.765 248.886C136.45 248.743 136.188 248.526 135.979 248.234C135.774 247.943 135.671 247.575 135.671 247.131V239.534ZM144.754 249H143.461L147.2 238.818H148.473L152.211 249H150.919L147.876 240.429H147.797L144.754 249ZM145.231 245.023H150.442V246.116H145.231V245.023ZM154.812 238.818V249H153.638V238.818H154.812ZM156.961 249V241.364H158.134V249H156.961ZM157.557 240.091C157.328 240.091 157.131 240.013 156.966 239.857C156.803 239.701 156.722 239.514 156.722 239.295C156.722 239.077 156.803 238.889 156.966 238.734C157.131 238.578 157.328 238.5 157.557 238.5C157.786 238.5 157.981 238.578 158.144 238.734C158.31 238.889 158.392 239.077 158.392 239.295C158.392 239.514 158.31 239.701 158.144 239.857C157.981 240.013 157.786 240.091 157.557 240.091ZM163.365 252.023C162.798 252.023 162.311 251.95 161.904 251.804C161.496 251.661 161.156 251.473 160.884 251.237C160.616 251.005 160.402 250.757 160.243 250.491L161.178 249.835C161.284 249.974 161.418 250.134 161.58 250.312C161.743 250.495 161.965 250.652 162.247 250.785C162.532 250.921 162.905 250.989 163.365 250.989C163.982 250.989 164.49 250.839 164.892 250.541C165.293 250.243 165.493 249.776 165.493 249.139V247.588H165.394C165.307 247.727 165.185 247.9 165.026 248.105C164.87 248.307 164.645 248.488 164.35 248.647C164.058 248.803 163.664 248.881 163.166 248.881C162.55 248.881 161.996 248.735 161.506 248.443C161.019 248.152 160.633 247.727 160.347 247.17C160.066 246.614 159.925 245.937 159.925 245.142C159.925 244.36 160.062 243.679 160.338 243.099C160.613 242.515 160.995 242.065 161.486 241.746C161.977 241.425 162.543 241.264 163.186 241.264C163.683 241.264 164.078 241.347 164.369 241.513C164.664 241.675 164.89 241.861 165.046 242.07C165.205 242.275 165.327 242.444 165.414 242.577H165.533V241.364H166.666V249.219C166.666 249.875 166.517 250.409 166.219 250.82C165.924 251.234 165.526 251.537 165.026 251.729C164.529 251.925 163.975 252.023 163.365 252.023ZM163.325 247.827C163.796 247.827 164.194 247.719 164.519 247.504C164.843 247.288 165.09 246.978 165.259 246.574C165.428 246.17 165.513 245.686 165.513 245.122C165.513 244.572 165.43 244.086 165.264 243.665C165.099 243.245 164.853 242.915 164.529 242.676C164.204 242.437 163.803 242.318 163.325 242.318C162.828 242.318 162.414 242.444 162.083 242.696C161.754 242.948 161.508 243.286 161.342 243.71C161.179 244.134 161.098 244.605 161.098 245.122C161.098 245.652 161.181 246.121 161.347 246.529C161.516 246.933 161.764 247.252 162.093 247.484C162.424 247.712 162.835 247.827 163.325 247.827ZM169.987 244.406V249H168.814V241.364H169.948V242.557H170.047C170.226 242.169 170.498 241.857 170.862 241.622C171.227 241.384 171.698 241.264 172.274 241.264C172.791 241.264 173.244 241.37 173.632 241.582C174.019 241.791 174.321 242.109 174.536 242.537C174.752 242.961 174.86 243.498 174.86 244.148V249H173.686V244.227C173.686 243.627 173.53 243.16 173.219 242.825C172.907 242.487 172.48 242.318 171.936 242.318C171.562 242.318 171.227 242.399 170.932 242.562C170.64 242.724 170.41 242.961 170.241 243.273C170.072 243.584 169.987 243.962 169.987 244.406ZM181.1 249V238.818H182.333V247.906H187.066V249H181.1ZM191.063 249.179C190.579 249.179 190.14 249.088 189.746 248.906C189.351 248.72 189.038 248.453 188.806 248.105C188.574 247.754 188.458 247.33 188.458 246.832C188.458 246.395 188.544 246.04 188.717 245.768C188.889 245.493 189.119 245.278 189.408 245.122C189.696 244.966 190.014 244.85 190.362 244.774C190.714 244.695 191.067 244.632 191.421 244.585C191.885 244.526 192.261 244.481 192.55 244.451C192.841 244.418 193.054 244.363 193.186 244.287C193.322 244.211 193.39 244.078 193.39 243.889V243.849C193.39 243.359 193.256 242.978 192.987 242.706C192.722 242.434 192.319 242.298 191.779 242.298C191.219 242.298 190.78 242.421 190.462 242.666C190.143 242.911 189.92 243.173 189.79 243.452L188.677 243.054C188.876 242.59 189.141 242.229 189.472 241.97C189.807 241.708 190.172 241.526 190.566 241.423C190.964 241.317 191.355 241.264 191.739 241.264C191.985 241.264 192.266 241.294 192.585 241.354C192.906 241.41 193.216 241.528 193.514 241.707C193.816 241.886 194.066 242.156 194.265 242.517C194.464 242.878 194.563 243.362 194.563 243.969V249H193.39V247.966H193.33C193.251 248.132 193.118 248.309 192.933 248.498C192.747 248.687 192.5 248.848 192.192 248.98C191.884 249.113 191.507 249.179 191.063 249.179ZM191.242 248.125C191.706 248.125 192.097 248.034 192.415 247.852C192.737 247.669 192.979 247.434 193.141 247.146C193.307 246.857 193.39 246.554 193.39 246.236V245.162C193.34 245.222 193.231 245.276 193.062 245.326C192.896 245.372 192.704 245.414 192.485 245.45C192.27 245.483 192.059 245.513 191.854 245.54C191.652 245.563 191.487 245.583 191.362 245.599C191.057 245.639 190.772 245.704 190.506 245.793C190.245 245.879 190.032 246.01 189.87 246.186C189.711 246.358 189.631 246.594 189.631 246.892C189.631 247.3 189.782 247.608 190.084 247.817C190.389 248.022 190.775 248.125 191.242 248.125ZM197.187 251.864C196.988 251.864 196.811 251.847 196.655 251.814C196.499 251.784 196.392 251.754 196.332 251.724L196.63 250.69C196.915 250.763 197.167 250.79 197.386 250.77C197.605 250.75 197.798 250.652 197.968 250.477C198.14 250.304 198.297 250.024 198.44 249.636L198.659 249.04L195.835 241.364H197.107L199.215 247.449H199.295L201.403 241.364H202.676L199.434 250.114C199.288 250.508 199.108 250.835 198.892 251.093C198.677 251.355 198.427 251.549 198.142 251.675C197.86 251.801 197.542 251.864 197.187 251.864ZM207.053 249.159C206.364 249.159 205.759 248.995 205.238 248.667C204.721 248.339 204.317 247.88 204.025 247.29C203.737 246.7 203.593 246.01 203.593 245.222C203.593 244.426 203.737 243.732 204.025 243.138C204.317 242.545 204.721 242.085 205.238 241.756C205.759 241.428 206.364 241.264 207.053 241.264C207.742 241.264 208.346 241.428 208.863 241.756C209.383 242.085 209.787 242.545 210.076 243.138C210.367 243.732 210.513 244.426 210.513 245.222C210.513 246.01 210.367 246.7 210.076 247.29C209.787 247.88 209.383 248.339 208.863 248.667C208.346 248.995 207.742 249.159 207.053 249.159ZM207.053 248.105C207.577 248.105 208.008 247.971 208.346 247.702C208.684 247.434 208.934 247.081 209.096 246.643C209.259 246.206 209.34 245.732 209.34 245.222C209.34 244.711 209.259 244.236 209.096 243.795C208.934 243.354 208.684 242.998 208.346 242.726C208.008 242.454 207.577 242.318 207.053 242.318C206.529 242.318 206.099 242.454 205.76 242.726C205.422 242.998 205.172 243.354 205.01 243.795C204.847 244.236 204.766 244.711 204.766 245.222C204.766 245.732 204.847 246.206 205.01 246.643C205.172 247.081 205.422 247.434 205.76 247.702C206.099 247.971 206.529 248.105 207.053 248.105ZM217.117 245.878V241.364H218.29V249H217.117V247.707H217.037C216.858 248.095 216.58 248.425 216.202 248.697C215.824 248.965 215.347 249.099 214.77 249.099C214.293 249.099 213.869 248.995 213.498 248.786C213.126 248.574 212.835 248.256 212.623 247.832C212.41 247.404 212.304 246.866 212.304 246.216V241.364H213.478V246.136C213.478 246.693 213.633 247.137 213.945 247.469C214.26 247.8 214.661 247.966 215.148 247.966C215.44 247.966 215.736 247.891 216.038 247.742C216.343 247.593 216.598 247.364 216.804 247.056C217.012 246.748 217.117 246.355 217.117 245.878ZM223.76 241.364V242.358H219.803V241.364H223.76ZM220.956 239.534H222.129V246.812C222.129 247.144 222.177 247.393 222.274 247.558C222.373 247.721 222.499 247.83 222.651 247.886C222.807 247.939 222.971 247.966 223.144 247.966C223.273 247.966 223.379 247.959 223.462 247.946C223.545 247.929 223.611 247.916 223.661 247.906L223.899 248.96C223.82 248.99 223.709 249.02 223.566 249.05C223.424 249.083 223.243 249.099 223.024 249.099C222.693 249.099 222.368 249.028 222.05 248.886C221.735 248.743 221.473 248.526 221.264 248.234C221.059 247.943 220.956 247.575 220.956 247.131V239.534Z" fill="#808080"/>
</svg>
