<svg width="58" height="58" viewBox="0 0 58 58" fill="none" xmlns="http://www.w3.org/2000/svg">
<rect width="58" height="58" rx="29" fill="#EFF2F6"/>
<path fill-rule="evenodd" clip-rule="evenodd" d="M25 26.6667C25 25.7462 25.7462 25 26.6667 25C27.5872 25 28.3334 25.7462 28.3334 26.6667C28.3334 27.5872 27.5872 28.3334 26.6667 28.3334C25.7462 28.3334 25 27.5872 25 26.6667ZM26.6667 26.3334C26.4826 26.3334 26.3334 26.4826 26.3334 26.6667C26.3334 26.8508 26.4826 27 26.6667 27C26.8508 27 27 26.8508 27 26.6667C27 26.4826 26.8508 26.3334 26.6667 26.3334Z" fill="#BBC8E2"/>
<path fill-rule="evenodd" clip-rule="evenodd" d="M22.3334 24.3334C22.3334 23.2288 23.2288 22.3334 24.3334 22.3334H33.6667C34.7713 22.3334 35.6667 23.2288 35.6667 24.3334V33.6667C35.6667 34.7713 34.7713 35.6667 33.6667 35.6667H24.3334C23.2288 35.6667 22.3334 34.7713 22.3334 33.6667V24.3334ZM24.3334 23.6667C23.9652 23.6667 23.6667 23.9652 23.6667 24.3334V33.6667C23.6667 33.9526 23.8467 34.1965 24.0995 34.2912L31.1954 27.1953C31.4557 26.935 31.8778 26.935 32.1382 27.1953L34.3334 29.3905V24.3334C34.3334 23.9652 34.0349 23.6667 33.6667 23.6667H24.3334ZM34.3334 31.2761L31.6668 28.6095L25.9429 34.3334H33.6667C34.0349 34.3334 34.3334 34.0349 34.3334 33.6667V31.2761Z" fill="#BBC8E2"/>
</svg>
